# xmcd
#
# Track frame offsets: 
#        150
#        14043
#        34024
#        50473
#        72170
#        88060
#        92384
#        112687
#        131733
#        152411
#        170527
#        184026
#        199884
#        219167
#        219479
#
# Disc length: 3255 seconds
#
# Revision: 2
# Processed by: cddbd v1.5.2PL0 Copyright (c) Steve Scherf et al.
# Submitted via: ExactAudioCopy v1.0b3
#
DISCID=c50cb50f
DTITLE=Timbuktu - Oberoendeframkallande
DYEAR=2007
DGENRE=Hip-Hop
TTITLE0=Pretjafs
TTITLE1=Låt Nr 92
TTITLE2=Lasternas (Med Dungen)
TTITLE3=Karmakontot
TTITLE4=Bra, Bra (Med Chords)
TTITLE5=En Vecka Med
TTITLE6=Ett Halvår Utan (Med Tingsek)
TTITLE7=Lika Barn Avika Bäst Del 2
TTITLE8=Kejsaren E Naken
TTITLE9=Vibb Aktuellt
TTITLE10=Ufokuken
TTITLE11=Fantasi
TTITLE12=Med Eller Mot
TTITLE13=www.stoppamej.nu
TTITLE14=Känn Pepp (OBFK)
EXTD=
EXTT0=
EXTT1=
EXTT2=
EXTT3=
EXTT4=
EXTT5=
EXTT6=
EXTT7=
EXTT8=
EXTT9=
EXTT10=
EXTT11=
EXTT12=
EXTT13=
EXTT14=
PLAYORDER=
